<svg width="20" height="20" viewBox="0 0 20 20" fill="none" xmlns="http://www.w3.org/2000/svg">
<path d="M10 0.242256C8.68678 0.242256 7.38642 0.500914 6.17317 1.00346C4.95991 1.50601 3.85752 2.2426 2.92893 3.17119C1.05357 5.04655 0 7.59009 0 10.2423C0 14.6623 2.87 18.4123 6.84 19.7423C7.34 19.8223 7.5 19.5123 7.5 19.2423V17.5523C4.73 18.1523 4.14 16.2123 4.14 16.2123C3.68 15.0523 3.03 14.7423 3.03 14.7423C2.12 14.1223 3.1 14.1423 3.1 14.1423C4.1 14.2123 4.63 15.1723 4.63 15.1723C5.5 16.6923 6.97 16.2423 7.54 16.0023C7.63 15.3523 7.89 14.9123 8.17 14.6623C5.95 14.4123 3.62 13.5523 3.62 9.74226C3.62 8.63226 4 7.74226 4.65 7.03226C4.55 6.78226 4.2 5.74226 4.75 4.39226C4.75 4.39226 5.59 4.12226 7.5 5.41226C8.29 5.19226 9.15 5.08226 10 5.08226C10.85 5.08226 11.71 5.19226 12.5 5.41226C14.41 4.12226 15.25 4.39226 15.25 4.39226C15.8 5.74226 15.45 6.78226 15.35 7.03226C16 7.74226 16.38 8.63226 16.38 9.74226C16.38 13.5623 14.04 14.4023 11.81 14.6523C12.17 14.9623 12.5 15.5723 12.5 16.5023V19.2423C12.5 19.5123 12.66 19.8323 13.17 19.7423C17.14 18.4023 20 14.6623 20 10.2423C20 8.92904 19.7413 7.62868 19.2388 6.41542C18.7362 5.20217 17.9997 4.09977 17.0711 3.17119C16.1425 2.2426 15.0401 1.50601 13.8268 1.00346C12.6136 0.500914 11.3132 0.242256 10 0.242256Z" fill="#4CE0D2"/>
</svg>
