<svg width="33" height="33" viewBox="0 0 33 33" fill="none" xmlns="http://www.w3.org/2000/svg">
<path d="M16.7206 6.25C14.7428 6.25 12.8094 6.83649 11.1649 7.9353C9.52039 9.03412 8.23866 10.5959 7.48179 12.4232C6.72491 14.2504 6.52688 16.2611 6.91273 18.2009C7.29858 20.1407 8.25099 21.9225 9.64951 23.3211C11.048 24.7196 12.8299 25.672 14.7697 26.0579C16.7095 26.4437 18.7202 26.2457 20.5474 25.4888C22.3747 24.7319 23.9365 23.4502 25.0353 21.8057C26.1341 20.1612 26.7206 18.2278 26.7206 16.25C26.7164 13.5991 25.6616 11.058 23.7871 9.1835C21.9126 7.30903 19.3715 6.25413 16.7206 6.25ZM16.7206 25C14.99 25 13.2983 24.4868 11.8593 23.5254C10.4204 22.5639 9.2989 21.1973 8.63664 19.5985C7.97437 17.9996 7.80109 16.2403 8.13871 14.543C8.47633 12.8456 9.30969 11.2865 10.5334 10.0628C11.7571 8.83911 13.3162 8.00575 15.0135 7.66813C16.7109 7.33051 18.4702 7.50379 20.0691 8.16605C21.6679 8.82832 23.0345 9.94983 23.9959 11.3888C24.9574 12.8277 25.4706 14.5194 25.4706 16.25C25.4706 18.5706 24.5487 20.7962 22.9078 22.4372C21.2668 24.0781 19.0412 25 16.7206 25ZM16.0956 1.875V0.625C16.0956 0.45924 16.1614 0.300269 16.2786 0.183058C16.3958 0.0658481 16.5548 0 16.7206 0C16.8863 0 17.0453 0.0658481 17.1625 0.183058C17.2797 0.300269 17.3456 0.45924 17.3456 0.625V1.875C17.3456 2.04076 17.2797 2.19973 17.1625 2.31694C17.0453 2.43415 16.8863 2.5 16.7206 2.5C16.5548 2.5 16.3958 2.43415 16.2786 2.31694C16.1614 2.19973 16.0956 2.04076 16.0956 1.875ZM5.23621 5.64062C5.16457 5.5869 5.10531 5.5184 5.06245 5.43978C5.01959 5.36116 4.99413 5.27425 4.98778 5.18493C4.98143 5.09561 4.99435 5.00597 5.02566 4.92208C5.05697 4.83819 5.10595 4.762 5.16926 4.69868C5.23258 4.63537 5.30877 4.58639 5.39266 4.55508C5.47655 4.52377 5.56619 4.51085 5.65551 4.5172C5.74483 4.52355 5.83174 4.54901 5.91037 4.59187C5.98899 4.63473 6.05748 4.69399 6.11121 4.76562L7.00183 5.64062C7.11384 5.76187 7.17604 5.92087 7.17604 6.08594C7.17604 6.251 7.11384 6.41001 7.00183 6.53125C6.94207 6.58937 6.87103 6.63461 6.79309 6.66417C6.71515 6.69373 6.63197 6.70699 6.54871 6.70312C6.46792 6.70576 6.38745 6.69188 6.31222 6.66232C6.23699 6.63277 6.16859 6.58817 6.11121 6.53125L5.23621 5.64062ZM2.97058 16.25C2.97058 16.4158 2.90473 16.5747 2.78752 16.6919C2.67031 16.8092 2.51134 16.875 2.34558 16.875H1.09558C0.929821 16.875 0.77085 16.8092 0.653639 16.6919C0.536429 16.5747 0.470581 16.4158 0.470581 16.25C0.470581 16.0842 0.536429 15.9253 0.653639 15.8081C0.77085 15.6908 0.929821 15.625 1.09558 15.625H2.34558C2.51134 15.625 2.67031 15.6908 2.78752 15.8081C2.90473 15.9253 2.97058 16.0842 2.97058 16.25ZM7.00183 25.9688C7.11384 26.09 7.17604 26.249 7.17604 26.4141C7.17604 26.5791 7.11384 26.7381 7.00183 26.8594L6.11121 27.7344C6.05459 27.7934 5.98668 27.8404 5.91152 27.8726C5.83636 27.9048 5.75548 27.9216 5.67371 27.9219C5.59179 27.9225 5.51064 27.9062 5.43535 27.8739C5.36005 27.8416 5.29225 27.7941 5.23621 27.7344C5.17761 27.6776 5.13103 27.6096 5.09922 27.5344C5.06741 27.4593 5.05101 27.3785 5.05101 27.2969C5.05101 27.2153 5.06741 27.1345 5.09922 27.0593C5.13103 26.9842 5.17761 26.9162 5.23621 26.8594L6.11121 25.9688C6.23245 25.8567 6.39145 25.7945 6.55652 25.7945C6.72158 25.7945 6.88059 25.8567 7.00183 25.9688ZM17.3456 30.625V31.875C17.3456 32.0408 17.2797 32.1997 17.1625 32.3169C17.0453 32.4342 16.8863 32.5 16.7206 32.5C16.5548 32.5 16.3958 32.4342 16.2786 32.3169C16.1614 32.1997 16.0956 32.0408 16.0956 31.875V30.625C16.0956 30.4592 16.1614 30.3003 16.2786 30.1831C16.3958 30.0658 16.5548 30 16.7206 30C16.8863 30 17.0453 30.0658 17.1625 30.1831C17.2797 30.3003 17.3456 30.4592 17.3456 30.625ZM28.205 26.8594C28.2635 26.9162 28.3101 26.9842 28.3419 27.0593C28.3738 27.1345 28.3901 27.2153 28.3901 27.2969C28.3901 27.3785 28.3738 27.4593 28.3419 27.5344C28.3101 27.6096 28.2635 27.6776 28.205 27.7344C28.1489 27.7941 28.0811 27.8416 28.0058 27.8739C27.9305 27.9062 27.8494 27.9225 27.7675 27.9219C27.6857 27.9216 27.6048 27.9048 27.5296 27.8726C27.4545 27.8404 27.3866 27.7934 27.33 27.7344L26.4393 26.8594C26.3212 26.7413 26.2549 26.5811 26.2549 26.4141C26.2549 26.247 26.3212 26.0869 26.4393 25.9688C26.5574 25.8506 26.7176 25.7843 26.8846 25.7843C27.0517 25.7843 27.2119 25.8506 27.33 25.9688L28.205 26.8594ZM32.9706 16.25C32.9706 16.4158 32.9047 16.5747 32.7875 16.6919C32.6703 16.8092 32.5113 16.875 32.3456 16.875H31.0956C30.9298 16.875 30.7708 16.8092 30.6536 16.6919C30.5364 16.5747 30.4706 16.4158 30.4706 16.25C30.4706 16.0842 30.5364 15.9253 30.6536 15.8081C30.7708 15.6908 30.9298 15.625 31.0956 15.625H32.3456C32.5113 15.625 32.6703 15.6908 32.7875 15.8081C32.9047 15.9253 32.9706 16.0842 32.9706 16.25ZM26.4393 6.53125C26.3273 6.41001 26.2651 6.251 26.2651 6.08594C26.2651 5.92087 26.3273 5.76187 26.4393 5.64062L27.33 4.76562C27.4503 4.67536 27.5992 4.63153 27.7493 4.6422C27.8993 4.65286 28.0405 4.7173 28.1469 4.82368C28.2533 4.93007 28.3177 5.07125 28.3284 5.22132C28.339 5.37139 28.2952 5.52027 28.205 5.64062L27.33 6.53125C27.2726 6.58817 27.2042 6.63277 27.1289 6.66232C27.0537 6.69188 26.9732 6.70576 26.8925 6.70312C26.8092 6.70699 26.726 6.69373 26.6481 6.66417C26.5701 6.63461 26.4991 6.58937 26.4393 6.53125Z" fill="#4CE0D2"/>
</svg>
