<svg width="20" height="20" viewBox="0 0 20 20" fill="none" xmlns="http://www.w3.org/2000/svg">
<path d="M7 10.5H8V8.5H9C9.28333 8.5 9.521 8.404 9.713 8.212C9.90433 8.02067 10 7.78333 10 7.5V6.5C10 6.21667 9.90433 5.979 9.713 5.787C9.521 5.59567 9.28333 5.5 9 5.5H7V10.5ZM8 7.5V6.5H9V7.5H8ZM11 10.5H13C13.2833 10.5 13.521 10.404 13.713 10.212C13.9043 10.0207 14 9.78333 14 9.5V6.5C14 6.21667 13.9043 5.979 13.713 5.787C13.521 5.59567 13.2833 5.5 13 5.5H11V10.5ZM12 9.5V6.5H13V9.5H12ZM15 10.5H16V8.5H17V7.5H16V6.5H17V5.5H15V10.5ZM6 16C5.45 16 4.97933 15.8043 4.588 15.413C4.196 15.021 4 14.55 4 14V2C4 1.45 4.196 0.979 4.588 0.587C4.97933 0.195667 5.45 0 6 0H18C18.55 0 19.021 0.195667 19.413 0.587C19.8043 0.979 20 1.45 20 2V14C20 14.55 19.8043 15.021 19.413 15.413C19.021 15.8043 18.55 16 18 16H6ZM2 20C1.45 20 0.979333 19.8043 0.588 19.413C0.196 19.021 0 18.55 0 18V4H2V18H16V20H2Z" fill="#4CE0D2"/>
</svg>
